<svg width="457px" height="472px" viewBox="0 0 457 472" version="1.1" xmlns="http://www.w3.org/2000/svg" xmlns:xlink="http://www.w3.org/1999/xlink">
  <g id="Page-1" stroke="none" stroke-width="1" fill="none" fill-rule="evenodd">
    <g id="Group" transform="translate(-14.000000, 0.000000)">
      <polygon id="Path-3" fill="#D8D8D8" transform="translate(88.850684, 393.012085) rotate(-6.000000) translate(-88.850684, -393.012085) " points="133.407936 322.172241 21.228424 417.845286 6.95615319 463.851929 57.6871007 449.291865 170.745216 355.520072"></polygon>
      <path d="M285.898785,127.816446 C250.031964,79.1625114 237.509939,30.5564746 258.587612,10.2020025 C284.319714,-14.6471999 350.384857,12.0198478 406.14824,69.7645206 C461.911622,127.509193 486.256785,194.464758 460.524682,219.313961 C440.218971,238.922958 394.797468,226.452268 349.141754,191.945285 L253.770765,306.157942 C274.358458,349.352829 272.023323,395.474686 243.856932,422.674653 C205.451306,459.762535 23.3985935,271.241433 61.8042196,234.153551 C87.876222,208.976111 129.378466,206.48357 169.073599,223.76589 L285.53125,127.453125 L285.898779,127.816437 Z" id="Combined-Shape" fill="#D22623"></path>
    </g>
  </g>
</svg>